<svg width="165" height="165" viewBox="0 0 165 165" fill="none" xmlns="http://www.w3.org/2000/svg">
<g filter="url(#filter0_d)">
<ellipse cx="82.1184" cy="50.1083" rx="41.1184" ry="41.0821" fill="white"/>
</g>
<path d="M80.0563 53.3649L77.8803 50.0369L83.0003 45.8449H74.3283V41.6209H89.3043V45.5249L84.1843 49.4929C85.8269 49.5996 87.2029 50.2503 88.3123 51.4449C89.4429 52.6183 90.0083 54.0796 90.0083 55.8289C90.0083 57.7489 89.2616 59.4023 87.7683 60.7889C86.2963 62.1543 84.3229 62.8369 81.8483 62.8369C79.5229 62.8369 77.6136 62.1969 76.1203 60.9169C74.6269 59.6156 73.7949 58.0369 73.6243 56.1809L78.4883 55.2849C78.5309 56.2236 78.8509 57.0023 79.4483 57.6209C80.0669 58.2396 80.8563 58.5489 81.8163 58.5489C82.7549 58.5489 83.5016 58.2716 84.0563 57.7169C84.6323 57.1623 84.9203 56.4903 84.9203 55.7009C84.9203 54.7836 84.6216 54.0903 84.0243 53.6209C83.4269 53.1303 82.7229 52.8849 81.9123 52.8849C81.2723 52.8849 80.6536 53.0449 80.0563 53.3649Z" fill="#7BC0E3"/>
<defs>
<filter id="filter0_d" x="0" y="0.0262451" width="164.237" height="164.164" filterUnits="userSpaceOnUse" color-interpolation-filters="sRGB">
<feFlood flood-opacity="0" result="BackgroundImageFix"/>
<feColorMatrix in="SourceAlpha" type="matrix" values="0 0 0 0 0 0 0 0 0 0 0 0 0 0 0 0 0 0 127 0" result="hardAlpha"/>
<feOffset dy="32"/>
<feGaussianBlur stdDeviation="20.5"/>
<feComposite in2="hardAlpha" operator="out"/>
<feColorMatrix type="matrix" values="0 0 0 0 0 0 0 0 0 0 0 0 0 0 0 0 0 0 0.13 0"/>
<feBlend mode="normal" in2="BackgroundImageFix" result="effect1_dropShadow"/>
<feBlend mode="normal" in="SourceGraphic" in2="effect1_dropShadow" result="shape"/>
</filter>
</defs>
</svg>
