<svg width="15" height="25" viewBox="0 0 15 25" fill="none" xmlns="http://www.w3.org/2000/svg">
<path d="M5.15743 12.5391L14.2508 3.44572C14.604 3.06659 14.7964 2.56513 14.7872 2.04699C14.7781 1.52886 14.5682 1.0345 14.2018 0.668062C13.8353 0.301628 13.341 0.0917289 12.8228 0.082587C12.3047 0.0734451 11.8032 0.265774 11.4241 0.619054L2.09076 9.95239L1.55743 10.4857L0.917426 11.1257C0.542892 11.5007 0.33252 12.0091 0.33252 12.5391C0.33252 13.0691 0.542892 13.5774 0.917426 13.9524L11.4241 24.4591C11.8032 24.8123 12.3047 25.0047 12.8228 24.9955C13.341 24.9864 13.8353 24.7765 14.2018 24.41C14.5682 24.0436 14.7781 23.5493 14.7872 23.0311C14.7964 22.513 14.604 22.0115 14.2508 21.6324L5.15743 12.5391Z" fill="#7BC0E3"/>
</svg>
